<mxfile host="app.diagrams.net" modified="2023-12-31T21:40:31.818Z" agent="Mozilla/5.0 (X11; Linux x86_64; rv:121.0) Gecko/20100101 Firefox/121.0" etag="G7oymjMFqUouOjDRoWsI" version="22.1.16" type="device">
  <diagram name="Page-1" id="JvnXxZ-x00xug25k3bjz">
    <mxGraphModel dx="1914" dy="2171" grid="1" gridSize="10" guides="1" tooltips="1" connect="1" arrows="1" fold="1" page="1" pageScale="1" pageWidth="850" pageHeight="1100" math="0" shadow="0">
      <root>
        <mxCell id="0" />
        <mxCell id="1" parent="0" />
        <mxCell id="XSEmJFiI2GAibp0473IN-8" value="&lt;div&gt;Login&lt;/div&gt;&lt;div&gt;Page&lt;br&gt;&lt;/div&gt;" style="rounded=0;whiteSpace=wrap;html=1;" vertex="1" parent="1">
          <mxGeometry x="40" y="140" width="120" height="140" as="geometry" />
        </mxCell>
        <mxCell id="XSEmJFiI2GAibp0473IN-9" value="Homepage" style="rounded=0;whiteSpace=wrap;html=1;" vertex="1" parent="1">
          <mxGeometry x="280" y="140" width="120" height="140" as="geometry" />
        </mxCell>
        <mxCell id="XSEmJFiI2GAibp0473IN-10" value="&lt;div&gt;Tournaments&lt;/div&gt;&lt;div&gt;page&lt;br&gt;&lt;/div&gt;" style="rounded=0;whiteSpace=wrap;html=1;" vertex="1" parent="1">
          <mxGeometry x="500" y="360" width="120" height="140" as="geometry" />
        </mxCell>
        <mxCell id="XSEmJFiI2GAibp0473IN-11" value="&lt;div&gt;Profile&amp;nbsp;&lt;/div&gt;&lt;div&gt;Page&lt;/div&gt;" style="rounded=0;whiteSpace=wrap;html=1;" vertex="1" parent="1">
          <mxGeometry x="580" y="140" width="120" height="140" as="geometry" />
        </mxCell>
        <mxCell id="XSEmJFiI2GAibp0473IN-12" value="&lt;div&gt;Users&lt;/div&gt;&lt;div&gt;Page&lt;br&gt;&lt;/div&gt;" style="rounded=0;whiteSpace=wrap;html=1;" vertex="1" parent="1">
          <mxGeometry x="500" y="-90" width="120" height="140" as="geometry" />
        </mxCell>
        <mxCell id="XSEmJFiI2GAibp0473IN-13" value="&lt;div&gt;My Battles&lt;/div&gt;&lt;div&gt;Page&lt;br&gt;&lt;/div&gt;" style="rounded=0;whiteSpace=wrap;html=1;" vertex="1" parent="1">
          <mxGeometry x="280" y="460" width="120" height="140" as="geometry" />
        </mxCell>
        <mxCell id="XSEmJFiI2GAibp0473IN-14" value="Messages&lt;br&gt;Page" style="rounded=0;whiteSpace=wrap;html=1;" vertex="1" parent="1">
          <mxGeometry x="280" y="-220" width="120" height="140" as="geometry" />
        </mxCell>
        <mxCell id="XSEmJFiI2GAibp0473IN-16" value="" style="endArrow=classic;html=1;rounded=0;exitX=1;exitY=0.5;exitDx=0;exitDy=0;entryX=0;entryY=0.5;entryDx=0;entryDy=0;" edge="1" parent="1" source="XSEmJFiI2GAibp0473IN-8" target="XSEmJFiI2GAibp0473IN-9">
          <mxGeometry width="50" height="50" relative="1" as="geometry">
            <mxPoint x="440" y="140" as="sourcePoint" />
            <mxPoint x="490" y="90" as="targetPoint" />
          </mxGeometry>
        </mxCell>
        <mxCell id="XSEmJFiI2GAibp0473IN-17" value="" style="endArrow=classic;html=1;rounded=0;entryX=0.5;entryY=1;entryDx=0;entryDy=0;exitX=0.5;exitY=0;exitDx=0;exitDy=0;" edge="1" parent="1" source="XSEmJFiI2GAibp0473IN-9" target="XSEmJFiI2GAibp0473IN-14">
          <mxGeometry width="50" height="50" relative="1" as="geometry">
            <mxPoint x="300" y="10" as="sourcePoint" />
            <mxPoint x="350" y="-40" as="targetPoint" />
          </mxGeometry>
        </mxCell>
        <mxCell id="XSEmJFiI2GAibp0473IN-18" value="" style="endArrow=classic;html=1;rounded=0;entryX=0.5;entryY=0;entryDx=0;entryDy=0;exitX=0.5;exitY=1;exitDx=0;exitDy=0;" edge="1" parent="1" source="XSEmJFiI2GAibp0473IN-9" target="XSEmJFiI2GAibp0473IN-13">
          <mxGeometry width="50" height="50" relative="1" as="geometry">
            <mxPoint x="350" y="150" as="sourcePoint" />
            <mxPoint x="350" y="-70" as="targetPoint" />
          </mxGeometry>
        </mxCell>
        <mxCell id="XSEmJFiI2GAibp0473IN-19" value="" style="endArrow=classic;html=1;rounded=0;entryX=0;entryY=0.5;entryDx=0;entryDy=0;exitX=0.75;exitY=1;exitDx=0;exitDy=0;" edge="1" parent="1" source="XSEmJFiI2GAibp0473IN-9" target="XSEmJFiI2GAibp0473IN-10">
          <mxGeometry width="50" height="50" relative="1" as="geometry">
            <mxPoint x="520" y="530" as="sourcePoint" />
            <mxPoint x="430" y="30" as="targetPoint" />
          </mxGeometry>
        </mxCell>
        <mxCell id="XSEmJFiI2GAibp0473IN-20" value="" style="endArrow=classic;html=1;rounded=0;entryX=0;entryY=0.5;entryDx=0;entryDy=0;exitX=1;exitY=0.5;exitDx=0;exitDy=0;" edge="1" parent="1" source="XSEmJFiI2GAibp0473IN-9" target="XSEmJFiI2GAibp0473IN-11">
          <mxGeometry width="50" height="50" relative="1" as="geometry">
            <mxPoint x="370" y="170" as="sourcePoint" />
            <mxPoint x="370" y="-50" as="targetPoint" />
          </mxGeometry>
        </mxCell>
        <mxCell id="XSEmJFiI2GAibp0473IN-21" value="" style="endArrow=classic;html=1;rounded=0;entryX=0;entryY=0.5;entryDx=0;entryDy=0;exitX=0.75;exitY=0;exitDx=0;exitDy=0;" edge="1" parent="1" source="XSEmJFiI2GAibp0473IN-9" target="XSEmJFiI2GAibp0473IN-12">
          <mxGeometry width="50" height="50" relative="1" as="geometry">
            <mxPoint x="380" y="180" as="sourcePoint" />
            <mxPoint x="380" y="-40" as="targetPoint" />
          </mxGeometry>
        </mxCell>
        <mxCell id="XSEmJFiI2GAibp0473IN-22" value="Successful" style="text;html=1;strokeColor=none;fillColor=none;align=center;verticalAlign=middle;whiteSpace=wrap;rounded=0;" vertex="1" parent="1">
          <mxGeometry x="190" y="180" width="60" height="30" as="geometry" />
        </mxCell>
        <mxCell id="XSEmJFiI2GAibp0473IN-25" value="" style="curved=1;endArrow=classic;html=1;rounded=0;exitX=0.5;exitY=1;exitDx=0;exitDy=0;" edge="1" parent="1" source="XSEmJFiI2GAibp0473IN-8">
          <mxGeometry width="50" height="50" relative="1" as="geometry">
            <mxPoint x="440" y="140" as="sourcePoint" />
            <mxPoint x="100" y="280" as="targetPoint" />
            <Array as="points">
              <mxPoint x="120" y="290" />
              <mxPoint x="120" y="340" />
              <mxPoint x="80" y="340" />
              <mxPoint x="80" y="290" />
            </Array>
          </mxGeometry>
        </mxCell>
        <mxCell id="XSEmJFiI2GAibp0473IN-26" value="Unsuccessful" style="text;html=1;strokeColor=none;fillColor=none;align=center;verticalAlign=middle;whiteSpace=wrap;rounded=0;" vertex="1" parent="1">
          <mxGeometry x="70" y="340" width="60" height="30" as="geometry" />
        </mxCell>
        <mxCell id="XSEmJFiI2GAibp0473IN-27" value="&lt;div&gt;Invitation&lt;/div&gt;&lt;div&gt;to&lt;/div&gt;&lt;div&gt;Team&lt;/div&gt;&lt;div&gt;Detail&lt;br&gt;Page&lt;br&gt;&lt;/div&gt;" style="rounded=0;whiteSpace=wrap;html=1;" vertex="1" parent="1">
          <mxGeometry x="40" y="-220" width="120" height="140" as="geometry" />
        </mxCell>
        <mxCell id="XSEmJFiI2GAibp0473IN-28" value="" style="endArrow=classic;html=1;rounded=0;exitX=0;exitY=0.5;exitDx=0;exitDy=0;entryX=1;entryY=0.5;entryDx=0;entryDy=0;" edge="1" parent="1" source="XSEmJFiI2GAibp0473IN-14" target="XSEmJFiI2GAibp0473IN-27">
          <mxGeometry width="50" height="50" relative="1" as="geometry">
            <mxPoint x="440" y="50" as="sourcePoint" />
            <mxPoint x="490" as="targetPoint" />
          </mxGeometry>
        </mxCell>
        <mxCell id="XSEmJFiI2GAibp0473IN-29" value="&lt;div&gt;Tournament&lt;/div&gt;&lt;div&gt;page&lt;br&gt;&lt;/div&gt;" style="rounded=0;whiteSpace=wrap;html=1;" vertex="1" parent="1">
          <mxGeometry x="750" y="360" width="120" height="140" as="geometry" />
        </mxCell>
        <mxCell id="XSEmJFiI2GAibp0473IN-31" value="&lt;div&gt;Tournament&lt;/div&gt;&lt;div&gt;Battles&lt;/div&gt;&lt;div&gt;Page&lt;br&gt;&lt;/div&gt;" style="rounded=0;whiteSpace=wrap;html=1;" vertex="1" parent="1">
          <mxGeometry x="750" y="610" width="120" height="140" as="geometry" />
        </mxCell>
        <mxCell id="XSEmJFiI2GAibp0473IN-32" value="&lt;div&gt;Tournament&lt;/div&gt;&lt;div&gt;Leaderboard&lt;/div&gt;&lt;div&gt;Page&lt;br&gt;&lt;/div&gt;" style="rounded=0;whiteSpace=wrap;html=1;" vertex="1" parent="1">
          <mxGeometry x="750" y="180" width="120" height="140" as="geometry" />
        </mxCell>
        <mxCell id="XSEmJFiI2GAibp0473IN-33" value="&lt;div&gt;Battle&lt;/div&gt;&lt;div&gt;Page&lt;br&gt;&lt;/div&gt;" style="rounded=0;whiteSpace=wrap;html=1;" vertex="1" parent="1">
          <mxGeometry x="460" y="750" width="120" height="140" as="geometry" />
        </mxCell>
        <mxCell id="XSEmJFiI2GAibp0473IN-34" value="&lt;div&gt;Team&lt;/div&gt;&lt;div&gt;Page&lt;br&gt;&lt;/div&gt;" style="rounded=0;whiteSpace=wrap;html=1;" vertex="1" parent="1">
          <mxGeometry x="180" y="750" width="120" height="140" as="geometry" />
        </mxCell>
        <mxCell id="XSEmJFiI2GAibp0473IN-35" value="&lt;div&gt;Team&lt;/div&gt;&lt;div&gt;Creation&lt;/div&gt;&lt;div&gt;Page&lt;br&gt;&lt;/div&gt;" style="rounded=0;whiteSpace=wrap;html=1;" vertex="1" parent="1">
          <mxGeometry x="260" y="980" width="120" height="140" as="geometry" />
        </mxCell>
        <mxCell id="XSEmJFiI2GAibp0473IN-36" value="Battle&lt;br&gt;&lt;div&gt;Leaderboard&lt;/div&gt;&lt;div&gt;Page&lt;br&gt;&lt;/div&gt;" style="rounded=0;whiteSpace=wrap;html=1;" vertex="1" parent="1">
          <mxGeometry x="530" y="980" width="120" height="140" as="geometry" />
        </mxCell>
        <mxCell id="XSEmJFiI2GAibp0473IN-37" value="" style="endArrow=classic;html=1;rounded=0;entryX=0;entryY=0.5;entryDx=0;entryDy=0;exitX=1;exitY=0.5;exitDx=0;exitDy=0;" edge="1" parent="1" source="XSEmJFiI2GAibp0473IN-10" target="XSEmJFiI2GAibp0473IN-29">
          <mxGeometry width="50" height="50" relative="1" as="geometry">
            <mxPoint x="760" y="840" as="sourcePoint" />
            <mxPoint x="730" y="790" as="targetPoint" />
          </mxGeometry>
        </mxCell>
        <mxCell id="XSEmJFiI2GAibp0473IN-38" value="" style="endArrow=classic;html=1;rounded=0;entryX=0.5;entryY=1;entryDx=0;entryDy=0;exitX=0.5;exitY=0;exitDx=0;exitDy=0;" edge="1" parent="1" source="XSEmJFiI2GAibp0473IN-29" target="XSEmJFiI2GAibp0473IN-32">
          <mxGeometry width="50" height="50" relative="1" as="geometry">
            <mxPoint x="760" y="570" as="sourcePoint" />
            <mxPoint x="810" y="520" as="targetPoint" />
          </mxGeometry>
        </mxCell>
        <mxCell id="XSEmJFiI2GAibp0473IN-39" value="" style="endArrow=classic;html=1;rounded=0;entryX=0.5;entryY=0;entryDx=0;entryDy=0;exitX=0.5;exitY=1;exitDx=0;exitDy=0;" edge="1" parent="1" source="XSEmJFiI2GAibp0473IN-29" target="XSEmJFiI2GAibp0473IN-31">
          <mxGeometry width="50" height="50" relative="1" as="geometry">
            <mxPoint x="600" y="660" as="sourcePoint" />
            <mxPoint x="650" y="610" as="targetPoint" />
          </mxGeometry>
        </mxCell>
        <mxCell id="XSEmJFiI2GAibp0473IN-40" value="" style="endArrow=classic;html=1;rounded=0;exitX=0;exitY=0.5;exitDx=0;exitDy=0;entryX=1;entryY=0.5;entryDx=0;entryDy=0;" edge="1" parent="1" source="XSEmJFiI2GAibp0473IN-31" target="XSEmJFiI2GAibp0473IN-33">
          <mxGeometry width="50" height="50" relative="1" as="geometry">
            <mxPoint x="760" y="800" as="sourcePoint" />
            <mxPoint x="810" y="750" as="targetPoint" />
          </mxGeometry>
        </mxCell>
        <mxCell id="XSEmJFiI2GAibp0473IN-41" value="" style="endArrow=classic;html=1;rounded=0;exitX=0.5;exitY=1;exitDx=0;exitDy=0;entryX=0.5;entryY=0;entryDx=0;entryDy=0;" edge="1" parent="1" source="XSEmJFiI2GAibp0473IN-13" target="XSEmJFiI2GAibp0473IN-33">
          <mxGeometry width="50" height="50" relative="1" as="geometry">
            <mxPoint x="760" y="800" as="sourcePoint" />
            <mxPoint x="810" y="750" as="targetPoint" />
          </mxGeometry>
        </mxCell>
        <mxCell id="XSEmJFiI2GAibp0473IN-42" value="" style="endArrow=classic;html=1;rounded=0;entryX=1;entryY=0.5;entryDx=0;entryDy=0;exitX=0;exitY=0.5;exitDx=0;exitDy=0;" edge="1" parent="1" source="XSEmJFiI2GAibp0473IN-33" target="XSEmJFiI2GAibp0473IN-34">
          <mxGeometry width="50" height="50" relative="1" as="geometry">
            <mxPoint x="760" y="800" as="sourcePoint" />
            <mxPoint x="810" y="750" as="targetPoint" />
          </mxGeometry>
        </mxCell>
        <mxCell id="XSEmJFiI2GAibp0473IN-43" value="" style="endArrow=classic;html=1;rounded=0;entryX=0.75;entryY=0;entryDx=0;entryDy=0;exitX=0.25;exitY=1;exitDx=0;exitDy=0;" edge="1" parent="1" source="XSEmJFiI2GAibp0473IN-33" target="XSEmJFiI2GAibp0473IN-35">
          <mxGeometry width="50" height="50" relative="1" as="geometry">
            <mxPoint x="470" y="830" as="sourcePoint" />
            <mxPoint x="310" y="830" as="targetPoint" />
          </mxGeometry>
        </mxCell>
        <mxCell id="XSEmJFiI2GAibp0473IN-44" value="" style="endArrow=classic;html=1;rounded=0;entryX=0.5;entryY=0;entryDx=0;entryDy=0;exitX=0.75;exitY=1;exitDx=0;exitDy=0;" edge="1" parent="1" source="XSEmJFiI2GAibp0473IN-33" target="XSEmJFiI2GAibp0473IN-36">
          <mxGeometry width="50" height="50" relative="1" as="geometry">
            <mxPoint x="480" y="840" as="sourcePoint" />
            <mxPoint x="320" y="840" as="targetPoint" />
          </mxGeometry>
        </mxCell>
        <mxCell id="XSEmJFiI2GAibp0473IN-46" value="" style="shape=flexArrow;endArrow=classic;html=1;rounded=0;entryX=0.5;entryY=0;entryDx=0;entryDy=0;" edge="1" parent="1" target="XSEmJFiI2GAibp0473IN-8">
          <mxGeometry width="50" height="50" relative="1" as="geometry">
            <mxPoint x="100" y="70" as="sourcePoint" />
            <mxPoint x="720" y="70" as="targetPoint" />
          </mxGeometry>
        </mxCell>
        <mxCell id="XSEmJFiI2GAibp0473IN-47" value="Entry point" style="text;html=1;strokeColor=none;fillColor=none;align=center;verticalAlign=middle;whiteSpace=wrap;rounded=0;" vertex="1" parent="1">
          <mxGeometry x="70" y="40" width="60" height="30" as="geometry" />
        </mxCell>
        <mxCell id="XSEmJFiI2GAibp0473IN-48" value="&lt;div&gt;User&lt;/div&gt;&lt;div&gt;Profile&lt;/div&gt;&lt;div&gt;Page&lt;br&gt;&lt;/div&gt;" style="rounded=0;whiteSpace=wrap;html=1;" vertex="1" parent="1">
          <mxGeometry x="750" y="-90" width="120" height="140" as="geometry" />
        </mxCell>
        <mxCell id="XSEmJFiI2GAibp0473IN-49" value="" style="endArrow=classic;html=1;rounded=0;entryX=0;entryY=0.5;entryDx=0;entryDy=0;exitX=1;exitY=0.5;exitDx=0;exitDy=0;" edge="1" parent="1" source="XSEmJFiI2GAibp0473IN-12" target="XSEmJFiI2GAibp0473IN-48">
          <mxGeometry width="50" height="50" relative="1" as="geometry">
            <mxPoint x="670" y="80" as="sourcePoint" />
            <mxPoint x="720" y="30" as="targetPoint" />
          </mxGeometry>
        </mxCell>
        <mxCell id="XSEmJFiI2GAibp0473IN-50" value="" style="endArrow=classic;html=1;rounded=0;entryX=0.5;entryY=1;entryDx=0;entryDy=0;exitX=0.5;exitY=0;exitDx=0;exitDy=0;" edge="1" parent="1" source="XSEmJFiI2GAibp0473IN-32" target="XSEmJFiI2GAibp0473IN-48">
          <mxGeometry width="50" height="50" relative="1" as="geometry">
            <mxPoint x="990" y="300" as="sourcePoint" />
            <mxPoint x="1040" y="250" as="targetPoint" />
          </mxGeometry>
        </mxCell>
        <mxCell id="XSEmJFiI2GAibp0473IN-51" value="" style="endArrow=classic;html=1;rounded=0;entryX=1;entryY=0.5;entryDx=0;entryDy=0;exitX=1;exitY=0.5;exitDx=0;exitDy=0;" edge="1" parent="1" source="XSEmJFiI2GAibp0473IN-36" target="XSEmJFiI2GAibp0473IN-48">
          <mxGeometry width="50" height="50" relative="1" as="geometry">
            <mxPoint x="1040" y="370" as="sourcePoint" />
            <mxPoint x="830" y="60" as="targetPoint" />
            <Array as="points">
              <mxPoint x="1040" y="1050" />
              <mxPoint x="1040" y="-20" />
            </Array>
          </mxGeometry>
        </mxCell>
        <mxCell id="XSEmJFiI2GAibp0473IN-52" value="" style="endArrow=classic;html=1;rounded=0;exitX=0;exitY=0.5;exitDx=0;exitDy=0;" edge="1" parent="1" source="XSEmJFiI2GAibp0473IN-34">
          <mxGeometry width="50" height="50" relative="1" as="geometry">
            <mxPoint x="90" y="840" as="sourcePoint" />
            <mxPoint x="870" y="-50" as="targetPoint" />
            <Array as="points">
              <mxPoint x="110" y="820" />
              <mxPoint x="110" y="1190" />
              <mxPoint x="1080" y="1190" />
              <mxPoint x="1080" y="-50" />
            </Array>
          </mxGeometry>
        </mxCell>
      </root>
    </mxGraphModel>
  </diagram>
</mxfile>
